<svg width="256" height="256" viewBox="0 0 256 256" fill="none" xmlns="http://www.w3.org/2000/svg">
<path d="M176.574 160.035L158.58 142.042C150.423 133.885 139.627 129.327 127.872 129.327C116.356 129.327 105.32 133.885 97.163 142.042L79.1697 160.035L29.0283 210.177L45.8221 226.97L96.2034 176.589C101.242 171.551 107.239 173.47 108.919 174.19C110.598 174.91 116.116 177.789 116.116 184.986V256H139.867V184.986C139.867 177.789 145.385 174.91 147.065 174.19C148.744 173.47 154.742 171.551 159.78 176.589L210.161 226.97L226.955 210.177L176.813 160.035H176.574Z" fill="url(#paint0_linear_11603_35)"/>
<path d="M210.882 116.117C201.525 116.117 193.608 110.839 190.009 102.202C186.411 93.5653 188.33 84.2087 194.808 77.7312L226.716 45.823L209.922 29.0292L181.613 57.3387C179.453 59.4979 177.054 61.1773 174.655 63.0966C168.417 66.6953 161.22 67.1751 154.263 64.2961C145.146 60.4576 139.628 52.3006 139.628 42.4642V0H115.877V42.4642C115.877 52.3006 110.359 60.4576 101.242 64.2961C94.285 67.1751 87.0877 66.6953 81.0899 63.3365C78.6908 61.4172 76.0518 59.7378 73.8926 57.3387L45.5831 29.0292L28.7893 45.823L58.7782 75.8119C65.7356 82.7693 67.6549 92.3657 63.8163 101.482C59.9777 110.599 51.8208 116.117 41.9844 116.117H0V139.868H42.4642C61.897 139.868 78.6908 128.592 86.128 110.839C88.2872 105.801 89.2469 100.763 89.4868 95.7245C101.722 100.763 114.917 103.402 127.873 103.402C140.828 103.402 153.063 101.003 164.819 96.2043C165.059 101.242 166.018 106.281 168.178 111.319C175.375 128.832 191.689 139.868 210.882 139.868H255.985V116.117H210.882Z" fill="black"/>
<defs>
<linearGradient id="paint0_linear_11603_35" x1="127.992" y1="256" x2="127.992" y2="129.327" gradientUnits="userSpaceOnUse">
<stop stop-color="#E968DD"/>
<stop offset="0.45" stop-color="#385CE5"/>
<stop offset="0.75"/>
</linearGradient>
</defs>
</svg>
